<svg width="116" height="64" viewBox="0 0 116 64" fill="none" xmlns="http://www.w3.org/2000/svg">
<path d="M0.845703 31.5871H6.54697V18.8192H16.9395V13.88H6.54697V4.9387H18.8861V0H0.845703V31.5871Z" fill="white"/>
<path d="M0.845703 31.5871H6.54697V18.8192H16.9395V13.88H6.54697V4.9387H18.8861V0H0.845703V31.5871Z" fill="white"/>
<path fill-rule="evenodd" clip-rule="evenodd" d="M94.9942 26.648V4.9387H99.6781C105.957 4.9387 110.114 8.72146 110.114 15.7532C110.114 22.8726 106.045 26.6553 99.6781 26.6553L94.9942 26.648ZM89.293 31.5871H99.9926C109.675 31.5871 115.999 25.7114 115.999 15.7458C115.999 5.78013 109.675 0 99.9926 0H89.293V31.5871Z" fill="white"/>
<path fill-rule="evenodd" clip-rule="evenodd" d="M94.9942 26.648V4.9387H99.6781C105.957 4.9387 110.114 8.72146 110.114 15.7532C110.114 22.8726 106.045 26.6553 99.6781 26.6553L94.9942 26.648ZM89.293 31.5871H99.9926C109.675 31.5871 115.999 25.7114 115.999 15.7458C115.999 5.78013 109.675 0 99.9926 0H89.293V31.5871Z" fill="white"/>
<path d="M12.2218 63.3647H8.1748L0 40.8066H4.39105L9.31643 55.5212C9.61663 56.4139 9.89464 57.6354 10.0484 58.3161C10.114 58.6306 10.1653 58.8283 10.1727 58.8283H10.2387C10.2456 58.8283 10.29 58.6306 10.3629 58.3161C10.5167 57.6354 10.7873 56.4139 11.0949 55.5212L16.0568 40.8066H20.4188L12.2218 63.3647Z" fill="white"/>
<path d="M12.2218 63.3647H8.1748L0 40.8066H4.39105L9.31643 55.5212C9.61663 56.4139 9.89464 57.6354 10.0484 58.3161C10.114 58.6306 10.1653 58.8283 10.1727 58.8283H10.2387C10.2456 58.8283 10.29 58.6306 10.3629 58.3161C10.5167 57.6354 10.7873 56.4139 11.0949 55.5212L16.0568 40.8066H20.4188L12.2218 63.3647Z" fill="white"/>
<path d="M42.1847 63.3647H28.25V40.8066H41.68V44.3336H32.3266V50.2453H39.8793V53.7723H32.3266V59.8452H42.1847V63.3647Z" fill="white"/>
<path d="M42.1847 63.3647H28.25V40.8066H41.68V44.3336H32.3266V50.2453H39.8793V53.7723H32.3266V59.8452H42.1847V63.3647Z" fill="white"/>
<path fill-rule="evenodd" clip-rule="evenodd" d="M55.5453 44.3336V51.387H59.2117C61.393 51.387 62.7466 50.0846 62.7466 47.8309C62.7466 45.6724 61.8317 44.3336 58.6409 44.3336H55.5453ZM55.5453 63.3647H51.4688V40.8066H58.6996C61.1293 40.8066 62.2344 40.9969 63.2153 41.443C65.4547 42.4604 66.8818 44.619 66.8818 47.6116C66.8818 50.3114 65.4621 52.8209 63.0906 53.7723V53.8383C63.0906 53.8383 63.4056 54.1528 63.8517 54.9504L68.4626 63.3721H63.9178L59.4607 54.9504H55.5453V63.3647Z" fill="white"/>
<path fill-rule="evenodd" clip-rule="evenodd" d="M55.5453 44.3336V51.387H59.2117C61.393 51.387 62.7466 50.0846 62.7466 47.8309C62.7466 45.6724 61.8317 44.3336 58.6409 44.3336H55.5453ZM55.5453 63.3647H51.4688V40.8066H58.6996C61.1293 40.8066 62.2344 40.9969 63.2153 41.443C65.4547 42.4604 66.8818 44.619 66.8818 47.6116C66.8818 50.3114 65.4621 52.8209 63.0906 53.7723V53.8383C63.0906 53.8383 63.4056 54.1528 63.8517 54.9504L68.4626 63.3721H63.9178L59.4607 54.9504H55.5453V63.3647Z" fill="white"/>
<path d="M83.3513 63.745C78.3599 63.745 75.6152 60.6646 75.6152 60.6646L77.8255 57.5843C77.8255 57.5843 80.2557 59.9696 83.4169 59.9696C85.1224 59.9696 86.6737 59.0769 86.6737 57.2328C86.6737 55.4839 84.6906 54.6282 82.4438 53.6546C79.4941 52.3745 76.0914 50.9036 76.0914 46.9744C76.0914 43.2207 79.3112 40.4258 83.6072 40.4258C88.0278 40.4258 90.3041 42.8407 90.3041 42.8407L88.533 46.1768C88.533 46.1768 86.3883 44.2085 83.5707 44.2085C81.6754 44.2085 80.1897 45.3211 80.1897 46.9088C80.1897 48.6208 82.1146 49.4184 84.3175 50.3327C87.2741 51.5621 90.7429 53.0035 90.7429 57.1377C90.7429 60.7302 88.0278 63.745 83.3513 63.745Z" fill="white"/>
<path d="M83.3513 63.745C78.3599 63.745 75.6152 60.6646 75.6152 60.6646L77.8255 57.5843C77.8255 57.5843 80.2557 59.9696 83.4169 59.9696C85.1224 59.9696 86.6737 59.0769 86.6737 57.2328C86.6737 55.4839 84.6906 54.6282 82.4438 53.6546C79.4941 52.3745 76.0914 50.9036 76.0914 46.9744C76.0914 43.2207 79.3112 40.4258 83.6072 40.4258C88.0278 40.4258 90.3041 42.8407 90.3041 42.8407L88.533 46.1768C88.533 46.1768 86.3883 44.2085 83.5707 44.2085C81.6754 44.2085 80.1897 45.3211 80.1897 46.9088C80.1897 48.6208 82.1146 49.4184 84.3175 50.3327C87.2741 51.5621 90.7429 53.0035 90.7429 57.1377C90.7429 60.7302 88.0278 63.745 83.3513 63.745Z" fill="white"/>
<path d="M113.798 63.3647H99.8633V40.8066H113.285V44.3336H103.94V50.2453H111.493V53.7723H103.94V59.8452H113.798V63.3647Z" fill="white"/>
<path d="M113.798 63.3647H99.8633V40.8066H113.285V44.3336H103.94V50.2453H111.493V53.7723H103.94V59.8452H113.798V63.3647Z" fill="white"/>
<path d="M55.1898 10.0388C56.9244 7.63178 58.7029 5.40717 60.8181 3.64395C66.7752 -1.32432 75.1624 -1.34601 80.7834 4.44891C86.8208 10.6756 86.8208 20.8606 80.7834 27.0874C77.8189 30.1386 73.9474 31.6312 70.098 31.5144C61.9888 31.2728 57.8832 25.3897 53.4335 19.0097C52.6359 17.868 51.86 16.7121 51.0625 15.5631C47.1979 10.0171 43.6266 4.9098 37.2593 4.71953C31.9608 4.55834 25.8568 8.90502 26.0032 15.9949C26.0619 18.8707 27.2548 21.534 29.1649 23.4949C33.3952 27.8558 39.7989 27.7972 44.3216 24.1169C46.2978 22.507 48.025 20.2755 49.7448 17.8463C50.0155 18.2412 50.2866 18.6291 50.5646 19.0097C51.128 19.8511 51.6845 20.663 52.2627 21.4901C50.4842 23.9557 48.6619 26.2311 46.4732 28.0165C40.5235 32.868 32.2166 32.8093 26.6692 27.0874C23.9467 24.2776 22.2342 20.3849 22.1465 16.1048C21.9414 6.24861 29.8018 -0.204872 37.3545 0.0218775C45.4637 0.263415 49.5694 6.14657 54.0191 12.5266C54.8166 13.6682 55.5925 14.8316 56.3901 15.9732C60.2547 21.5192 63.826 26.6265 70.1932 26.8167C73.0911 26.9045 76.0551 25.7998 78.2876 23.4949C82.5032 19.1561 82.5032 12.3802 78.2876 8.0414C73.9986 3.62177 67.522 3.76077 63.0062 7.52925C61.0887 9.13177 59.3979 11.312 57.7151 13.6825C56.8879 12.4536 56.046 11.2534 55.1972 10.0462" fill="white"/>
<path d="M55.1898 10.0388C56.9244 7.63178 58.7029 5.40717 60.8181 3.64395C66.7752 -1.32432 75.1624 -1.34601 80.7834 4.44891C86.8208 10.6756 86.8208 20.8606 80.7834 27.0874C77.8189 30.1386 73.9474 31.6312 70.098 31.5144C61.9888 31.2728 57.8832 25.3897 53.4335 19.0097C52.6359 17.868 51.86 16.7121 51.0625 15.5631C47.1979 10.0171 43.6266 4.9098 37.2593 4.71953C31.9608 4.55834 25.8568 8.90502 26.0032 15.9949C26.0619 18.8707 27.2548 21.534 29.1649 23.4949C33.3952 27.8558 39.7989 27.7972 44.3216 24.1169C46.2978 22.507 48.025 20.2755 49.7448 17.8463C50.0155 18.2412 50.2866 18.6291 50.5646 19.0097C51.128 19.8511 51.6845 20.663 52.2627 21.4901C50.4842 23.9557 48.6619 26.2311 46.4732 28.0165C40.5235 32.868 32.2166 32.8093 26.6692 27.0874C23.9467 24.2776 22.2342 20.3849 22.1465 16.1048C21.9414 6.24861 29.8018 -0.204872 37.3545 0.0218775C45.4637 0.263415 49.5694 6.14657 54.0191 12.5266C54.8166 13.6682 55.5925 14.8316 56.3901 15.9732C60.2547 21.5192 63.826 26.6265 70.1932 26.8167C73.0911 26.9045 76.0551 25.7998 78.2876 23.4949C82.5032 19.1561 82.5032 12.3802 78.2876 8.0414C73.9986 3.62177 67.522 3.76077 63.0062 7.52925C61.0887 9.13177 59.3979 11.312 57.7151 13.6825C56.8879 12.4536 56.046 11.2534 55.1972 10.0462" fill="white"/>
</svg>
